# xmcd CD database file
#
# Track frame offsets:
#	150
#	21915
#	46030
#	68841
#	85095
#	105362
#	123943
#	147573
#	163907
#	185425
#	206238
#	222284
#	230096
#
# Disc length: 3380 seconds
#
# Revision: 0
# Processed by: cddbd v1.5.2PL0 Copyright (c) Steve Scherf et al.
# Submitted via: CDex 1.70beta2
#
DISCID=ba0d320d
DTITLE=DOCTOR 3: Danilo Rea/Enzo Pietropaoli/Fabrizio Sferra - jazzitaliano live 2007
DYEAR=2007
DGENRE=Jazz
TTITLE0=Sgt.Pepper's Lonely Hearts Club Band
TTITLE1=With a little help from my friends
TTITLE2=Lucy in the sky with diamonds
TTITLE3=Getting better
TTITLE4=Fixing a hole
TTITLE5=She's leaving home
TTITLE6=Being for the benefit of Mr.Kite
TTITLE7=Within you without you
TTITLE8=When I'm sixty-four
TTITLE9=Lovely Rita
TTITLE10=Good morning good morning
TTITLE11=Sgt.Pepper's Lonely Heart
TTITLE12=A day in the life
EXTD=YEAR: 2007
EXTT0=
EXTT1=
EXTT2=
EXTT3=
EXTT4=
EXTT5=
EXTT6=
EXTT7=
EXTT8=
EXTT9=
EXTT10=
EXTT11=
EXTT12=
PLAYORDER=
